<?xml version="1.0" standalone="no"?>
<!DOCTYPE svg PUBLIC "-//W3C//DTD SVG 20010904//EN"
 "http://www.w3.org/TR/2001/REC-SVG-20010904/DTD/svg10.dtd">
<svg version="1.0" xmlns="http://www.w3.org/2000/svg"
 width="512.000000pt" height="512.000000pt" viewBox="0 0 512.000000 512.000000"
 preserveAspectRatio="xMidYMid meet">

<g transform="translate(0.000000,512.000000) scale(0.100000,-0.100000)"
fill="#000000" stroke="none">
<path d="M1110 4556 c-303 -91 -527 -349 -580 -666 -7 -45 -10 -473 -8 -1380
l3 -1315 24 -70 c96 -286 290 -480 576 -576 l70 -24 1325 -3 c1464 -3 1401 -5
1559 60 199 83 378 262 457 456 61 152 58 104 62 977 1 440 -1 832 -6 870 -8
67 -9 69 -21 43 -9 -18 -19 -25 -30 -20 -13 5 -14 3 -4 -9 10 -13 10 -19 -2
-35 -14 -18 -15 -18 -11 6 2 14 -1 33 -6 43 -5 10 -12 31 -14 45 -3 15 -11 54
-20 87 -8 33 -16 74 -18 90 -4 28 -10 56 -36 165 -25 101 -29 114 -44 122 -9
5 -18 9 -21 8 -9 0 -45 39 -45 50 0 5 -6 7 -14 4 -7 -3 -20 2 -29 10 -8 8 -16
13 -19 11 -2 -2 -23 14 -48 36 -28 25 -47 36 -53 30 -10 -10 -47 28 -47 48 0
14 -16 14 -41 1 -18 -10 -24 -4 -20 23 0 4 -8 7 -20 7 -11 0 -18 4 -15 8 2 4
1 14 -5 22 -7 13 -9 12 -9 -1 0 -9 -8 -19 -18 -21 -12 -3 -18 1 -18 12 0 12 6
16 16 12 13 -5 13 -3 2 11 -17 20 -54 18 -65 -3 -5 -9 -6 -6 -3 10 6 27 -19
61 -38 54 -7 -3 -19 2 -26 11 -10 12 -10 18 0 30 10 12 9 15 -4 15 -10 0 -14
-4 -11 -10 3 -5 2 -10 -4 -10 -5 0 -13 11 -18 25 -8 24 -9 24 -37 10 -33 -18
-46 -19 -46 -5 0 6 7 10 15 10 8 0 15 5 15 11 0 5 -8 9 -17 8 -17 -2 -93 26
-93 34 0 11 42 0 59 -15 11 -10 22 -14 25 -10 3 5 -12 17 -32 27 -20 11 -45
27 -55 37 -10 10 -27 18 -38 18 -11 0 -18 4 -15 9 3 5 -1 12 -10 15 -9 3 -12
11 -8 18 6 10 4 11 -7 1 -19 -18 -32 -16 -25 4 4 10 4 14 0 10 -4 -4 -18 0
-30 8 -14 9 -25 11 -29 5 -3 -6 -1 -10 6 -10 7 0 9 -3 6 -6 -4 -4 -13 -1 -22
6 -14 11 -13 14 1 25 15 11 15 12 -2 10 -11 0 -25 -4 -32 -8 -8 -6 -10 -3 -6
8 7 18 -21 44 -48 45 -12 0 -15 5 -11 18 3 9 3 14 -2 10 -4 -4 -17 -2 -28 4
-17 9 -19 8 -14 -7 5 -11 3 -15 -5 -13 -7 3 -13 10 -13 16 0 20 -40 48 -67 47
-18 -1 -25 2 -21 12 4 9 0 11 -13 6 -11 -4 -15 -3 -11 4 7 12 -18 43 -34 43
-5 0 -9 -6 -9 -12 0 -7 -6 -4 -12 7 -15 27 -30 36 -48 30 -9 -3 -30 7 -47 23
-31 28 -41 32 -82 38 -13 1 -29 8 -35 15 -8 9 -8 10 2 5 6 -4 12 -2 12 3 0 6
-9 11 -19 11 -10 0 -22 7 -25 16 -4 9 -9 14 -13 10 -3 -3 -14 1 -24 10 -10 9
-37 18 -61 21 -24 3 -46 11 -50 17 -5 7 -8 7 -8 1 0 -12 -39 -14 -55 -4 -16
11 -241 36 -390 44 -44 3 -109 7 -145 10 -36 3 -150 10 -255 15 -398 21 -588
35 -625 45 -24 7 -40 20 -45 36 -8 24 -31 24 -125 -5z m2094 -412 c3 -8 2 -12
-4 -9 -6 3 -10 10 -10 16 0 14 7 11 14 -7z m-914 -758 c0 -528 -3 -682 -13
-689 -9 -7 -9 -10 1 -14 8 -3 11 -23 11 -56 -1 -34 -4 -42 -6 -22 -3 17 -9 36
-15 43 -7 8 -7 12 1 12 7 0 9 5 6 10 -3 6 -12 10 -19 10 -10 0 -11 -12 -6 -47
4 -27 5 -50 1 -53 -3 -3 -6 -74 -6 -158 0 -85 -3 -156 -7 -159 -5 -2 -8 6 -9
19 -4 85 -3 108 4 108 5 0 6 4 3 9 -3 5 -8 167 -10 361 -4 277 -8 355 -18 361
-8 6 -9 9 -2 9 8 0 12 39 12 128 1 113 -1 125 -13 108 -8 -11 -15 -26 -15 -34
0 -7 -5 -10 -10 -7 -6 3 -17 0 -25 -9 -11 -11 -12 -16 -2 -20 6 -3 2 -3 -10 0
-14 3 -25 -1 -31 -11 -5 -11 -25 -17 -55 -19 -53 -3 -56 -1 -27 14 14 8 26 8
40 0 17 -9 20 -8 17 11 -5 34 -51 44 -101 24 -14 -6 -17 -5 -12 3 4 7 0 22 -9
34 l-17 23 7 -22 c5 -19 1 -23 -30 -29 -44 -8 -58 1 -16 11 31 7 39 19 21 30
-6 3 -13 -1 -16 -9 -8 -21 -34 -21 -34 0 0 9 5 12 12 8 6 -4 8 -3 5 4 -5 7
-16 7 -37 -1 -17 -7 -26 -13 -20 -15 13 -5 13 -42 0 -42 -5 0 -10 4 -10 8 0 5
-10 14 -22 20 -19 9 -20 11 -5 11 18 1 15 21 -3 21 -21 0 -26 -80 -29 -395 -1
-181 -4 -332 -7 -334 -10 -10 -18 12 -16 43 2 20 -4 38 -13 46 -13 11 -16 11
-13 -1 2 -8 8 -17 13 -21 6 -4 2 -8 -7 -8 -19 0 -25 -16 -8 -22 5 -2 6 -9 1
-17 -7 -11 -13 -7 -25 17 -14 27 -16 86 -15 477 1 358 3 448 14 459 15 15 16
97 1 108 -16 11 11 58 34 58 11 0 20 5 20 10 0 6 -32 53 -72 106 -47 63 -86
104 -116 121 -41 24 -43 27 -26 40 15 11 91 13 386 11 l369 -3 -1 -679z m1310
510 c0 -3 -4 -8 -10 -11 -5 -3 -10 -1 -10 4 0 6 5 11 10 11 6 0 10 -2 10 -4z
m-790 -62 c483 -83 908 -450 1058 -914 39 -118 48 -170 32 -170 -7 0 -9 8 -5
20 4 11 2 20 -4 20 -6 0 -11 11 -11 24 0 14 -4 28 -10 31 -5 3 -10 14 -10 23
0 9 -18 52 -39 95 -35 71 -39 76 -49 55 -8 -18 -11 -19 -11 -6 -1 11 -6 15
-15 12 -9 -3 -26 18 -51 63 -86 155 -223 310 -377 426 -20 15 -40 27 -43 27
-3 0 -21 11 -38 24 -43 32 -184 98 -277 130 -68 23 -216 58 -247 59 -7 0 -13
7 -14 16 0 10 -2 12 -6 4 -6 -15 -79 -17 -88 -3 -3 6 1 7 9 4 11 -4 16 0 16
11 0 14 -7 16 -40 11 -24 -3 -40 -1 -40 5 0 6 4 8 8 5 4 -2 14 -1 22 4 9 5
-19 9 -71 9 -46 0 -88 0 -93 0 -5 1 -3 8 4 15 6 8 30 17 53 19 66 7 244 -3
337 -19z m1000 -34 c0 -5 -2 -10 -4 -10 -3 0 -8 5 -11 10 -3 6 -1 10 4 10 6 0
11 -4 11 -10z m20 -30 c0 -5 -5 -10 -11 -10 -5 0 -7 5 -4 10 3 6 8 10 11 10 2
0 4 -4 4 -10z m65 -40 c-3 -5 -12 -10 -18 -10 -7 0 -6 4 3 10 19 12 23 12 15
0z m-2450 -469 c3 -5 2 -12 -3 -15 -5 -3 -9 1 -9 9 0 17 3 19 12 6z m-25 -52
c-6 -10 -16 -19 -21 -19 -6 0 -8 -7 -5 -16 4 -9 2 -22 -4 -29 -6 -7 -26 -44
-45 -82 -27 -54 -35 -64 -41 -49 -4 10 -3 21 2 25 5 3 10 13 12 21 11 48 90
183 103 174 5 -3 5 -13 -1 -25z m702 9 c-7 -7 -12 -8 -12 -2 0 14 12 26 19 19
2 -3 -1 -11 -7 -17z m28 -18 c0 -5 -2 -10 -4 -10 -3 0 -8 5 -11 10 -3 6 -1 10
4 10 6 0 11 -4 11 -10z m1650 -230 c0 -5 -2 -10 -4 -10 -3 0 -8 5 -11 10 -3 6
-1 10 4 10 6 0 11 -4 11 -10z m-1098 -235 c30 -12 56 -37 108 -102 6 -7 10
-15 10 -19 0 -4 7 -15 15 -24 14 -16 14 -18 -5 -23 -14 -4 -20 0 -20 12 0 10
-3 21 -7 25 -5 4 -8 11 -8 16 0 9 -81 88 -116 112 -30 21 -22 22 23 3z m-938
-135 c-1 -44 -14 -50 -14 -7 0 21 3 37 8 37 4 0 7 -14 6 -30z m1096 -75 c0 -7
6 -18 13 -22 6 -4 13 -17 13 -28 3 -43 11 -67 25 -76 8 -5 11 -9 7 -9 -4 0 -4
-10 1 -23 6 -15 4 -29 -5 -42 -19 -25 -18 -44 1 -19 13 16 16 17 25 4 13 -19
13 -43 0 -35 -14 9 -72 -24 -64 -36 4 -8 10 -7 16 2 8 11 9 11 5 -1 -2 -8 -10
-14 -16 -12 -6 1 -11 -2 -11 -8 0 -5 -7 -10 -16 -10 -8 0 -12 -5 -9 -10 4 -6
11 -8 16 -5 5 4 9 1 9 -4 0 -6 -5 -11 -11 -11 -5 0 -8 -4 -5 -9 3 -5 -1 -11
-9 -15 -16 -6 -21 -31 -7 -39 4 -2 2 -2 -5 -1 -8 2 -12 -9 -11 -31 2 -44 -7
-53 -34 -36 -15 9 -18 10 -12 0 5 -9 2 -11 -9 -6 -11 4 -14 2 -10 -9 4 -10 -2
-17 -16 -21 -18 -5 -19 -7 -7 -17 9 -7 11 -17 6 -31 -7 -16 -9 -16 -9 -4 -1 9
-8 19 -15 22 -10 4 -13 1 -9 -9 3 -8 -1 -14 -11 -14 -10 0 -13 -6 -10 -15 4
-10 14 -14 28 -10 11 2 15 2 8 -1 -6 -3 -10 -10 -6 -15 3 -5 1 -9 -5 -9 -5 0
-12 4 -15 8 -7 11 -66 3 -66 -9 0 -5 11 -7 25 -3 29 7 35 -15 10 -36 -19 -16
-9 -33 15 -25 19 6 68 -14 69 -27 1 -5 1 -13 1 -19 0 -5 4 -8 10 -4 5 3 6 13
3 22 -5 12 -2 15 10 10 12 -5 17 -1 17 13 0 10 4 21 9 24 5 4 6 -9 1 -28 -6
-26 -4 -36 7 -40 11 -5 13 -1 8 15 -5 15 -4 19 4 15 6 -4 11 -2 11 3 0 14 20
10 38 -7 8 -7 17 -10 22 -7 5 3 12 0 16 -6 4 -8 3 -9 -4 -5 -7 4 -12 2 -12 -5
0 -8 -4 -8 -12 -2 -23 18 -50 24 -46 11 3 -7 10 -13 16 -13 25 0 14 -20 -14
-27 l-29 -7 31 2 c25 3 30 -1 30 -20 0 -17 -3 -20 -13 -11 -10 8 -12 7 -7 -6
3 -9 9 -16 13 -16 3 0 12 -9 19 -21 12 -19 11 -20 -10 -14 -22 6 -22 5 -3 -6
11 -7 22 -13 24 -15 2 -2 -5 -11 -15 -21 -16 -16 -42 -18 -241 -21 l-223 -4 0
191 c0 121 4 191 10 191 6 0 10 -6 11 -12 0 -10 2 -10 6 0 2 6 21 12 42 12 20
0 48 8 61 17 14 10 27 17 30 15 13 -5 40 11 57 36 36 54 41 74 27 127 -12 45
-11 77 1 44 26 -74 33 -102 29 -124 -2 -14 0 -25 6 -25 5 0 10 5 10 12 0 6 7
3 16 -8 13 -16 15 -16 10 -1 -4 12 0 17 15 17 11 0 18 4 15 9 -3 5 1 11 9 15
8 3 15 12 15 21 0 8 6 15 13 15 8 0 14 6 15 13 9 73 22 93 41 60 9 -16 10 -15
8 5 -1 15 -8 22 -22 22 -12 0 -16 3 -9 8 7 4 11 30 10 65 -1 41 2 57 11 57 7
0 13 8 13 18 0 15 -2 15 -11 2 -7 -11 -8 -5 -4 23 3 21 1 37 -5 37 -6 0 -10 9
-10 20 0 11 5 20 11 20 8 0 8 5 -1 15 -10 12 -10 15 4 15 9 0 16 -7 16 -15z
m-27 -80 c-3 -9 -8 -14 -10 -11 -3 3 -2 9 2 15 9 16 15 13 8 -4z m415 -15 c4
0 8 -22 9 -50 1 -29 -3 -50 -9 -50 -6 0 -8 7 -5 15 4 8 3 16 -2 19 -4 3 -8 26
-8 53 -1 26 1 40 4 31 2 -10 8 -18 11 -18z m423 -77 c-33 -271 -135 -488 -312
-666 -70 -70 -81 -78 -111 -75 -19 2 -33 9 -33 16 0 7 -6 16 -13 21 -10 6 -10
10 3 21 18 15 17 70 -2 70 -6 0 -16 6 -20 13 -4 8 -17 19 -28 25 -18 10 -18
11 -2 12 14 0 16 4 8 19 -14 25 -41 35 -41 15 0 -10 6 -14 15 -10 8 3 15 1 15
-4 0 -6 -4 -10 -9 -10 -5 0 -16 -3 -24 -6 -11 -4 -17 2 -20 18 -4 21 -4 20 -6
-4 0 -16 -5 -28 -11 -28 -5 0 -10 -7 -10 -16 0 -8 -4 -13 -9 -10 -13 8 -9 26
14 60 26 39 27 56 4 56 -12 0 -16 -5 -13 -15 5 -11 -1 -15 -20 -15 -24 0 -25
2 -16 20 6 11 16 20 23 20 7 0 -2 9 -19 19 -27 16 -31 25 -29 53 3 39 -10 68
-31 68 -8 0 -12 5 -8 11 3 6 15 9 25 6 11 -3 19 -1 19 4 0 5 10 9 23 10 21 0
21 1 -3 10 -17 7 -26 7 -28 0 -8 -23 -20 -9 -31 35 -9 35 -9 49 0 60 9 11 8
15 -5 20 -9 3 -13 10 -10 15 8 13 -10 11 -24 -3 -8 -8 -12 -8 -12 -1 0 6 7 13
15 17 8 3 15 10 15 16 0 6 -4 9 -9 6 -5 -4 -7 3 -4 14 3 11 10 20 16 20 14 0
36 -32 37 -52 0 -10 4 -18 9 -18 5 0 7 -9 4 -20 -3 -12 -2 -20 3 -19 20 3 35
-2 30 -10 -3 -5 1 -14 9 -21 10 -9 15 -9 15 -1 0 6 4 11 10 11 6 0 6 -9 0 -24
-8 -21 -5 -29 20 -50 19 -16 25 -26 17 -29 -9 -4 -8 -8 3 -16 8 -6 11 -11 7
-11 -4 0 -2 -10 5 -22 7 -13 11 -26 10 -30 -1 -5 2 -8 8 -8 5 0 10 -7 10 -17
0 -9 3 -13 7 -10 3 4 12 -1 18 -10 11 -14 10 -20 -4 -30 -14 -10 -13 -11 6 -6
18 4 25 0 33 -22 11 -30 35 -57 43 -49 3 3 8 1 12 -5 3 -6 1 -11 -5 -11 -16 0
13 -28 31 -30 31 -5 38 1 45 36 4 22 2 46 -6 62 -7 15 -14 40 -15 56 -2 16 -9
32 -16 37 -11 7 -11 9 1 9 11 0 12 2 3 8 -7 4 -14 25 -15 45 -2 20 -6 37 -9
37 -3 0 -6 15 -7 33 -4 89 -8 127 -13 127 -3 0 -6 12 -7 28 0 15 -3 42 -5 60
-2 17 0 32 5 32 4 0 8 -1 8 -3 0 -39 34 -214 43 -219 12 -7 13 -11 16 -44 0
-8 5 -12 11 -9 5 3 7 0 4 -8 -3 -8 2 -22 11 -30 9 -9 15 -22 14 -29 -3 -20 12
-68 22 -68 5 0 9 -7 9 -15 0 -30 29 -27 60 5 17 18 29 35 26 38 -3 3 2 11 12
19 9 8 11 11 3 7 -7 -4 -12 -3 -9 2 2 5 10 22 18 38 11 23 12 30 2 34 -6 2
-12 8 -12 13 0 6 6 7 13 3 8 -5 8 -2 -2 9 -10 13 -10 17 -1 17 8 0 9 5 4 13
-5 7 1 1 13 -13 13 -14 23 -28 23 -32 0 -5 5 -8 11 -8 14 0 52 90 72 170 19
75 31 142 29 153 -3 13 20 98 26 93 2 -3 -1 -49 -7 -103z m-1904 -5 c-3 -8 -6
-5 -6 6 -1 11 2 17 5 13 3 -3 4 -12 1 -19z m3 -104 c0 -8 -4 -12 -10 -9 -5 3
-10 10 -10 16 0 5 5 9 10 9 6 0 10 -7 10 -16z m476 -118 c-2 -63 -2 -117 1
-120 8 -8 10 -66 2 -66 -5 0 -4 -37 1 -50 1 -3 2 -9 1 -13 -1 -5 3 -6 9 -2 5
3 10 1 10 -4 0 -6 -7 -11 -15 -11 -12 0 -15 -16 -16 -77 -2 -129 4 -157 31
-150 19 5 20 0 20 -69 l0 -74 699 0 c385 0 706 -3 715 -6 29 -11 17 -33 -31
-58 -49 -25 -82 -60 -193 -203 l-63 -83 -486 -1 c-630 -2 -772 -2 -1087 0
-239 1 -264 0 -304 -18 -80 -36 -79 -22 9 133 125 221 141 254 141 285 0 23 5
31 18 31 10 0 23 -5 30 -12 15 -15 14 -20 17 149 1 73 4 136 8 140 8 7 11 -23
7 -86 -1 -29 2 -41 9 -37 6 4 11 2 11 -3 0 -6 -3 -11 -7 -11 -14 0 -8 -65 7
-77 10 -9 11 -12 3 -13 -21 0 -15 -21 12 -46 26 -24 36 -62 13 -48 -8 5 -8 1
1 -10 9 -11 22 -15 37 -12 17 5 23 1 26 -19 3 -13 0 -29 -5 -34 -8 -8 -7 -11
1 -11 7 0 12 5 12 10 0 6 7 10 15 10 8 0 15 -4 15 -10 0 -5 5 -10 11 -10 5 0
8 4 4 9 -3 5 1 16 9 24 20 20 3 87 -22 88 -15 0 -15 1 1 8 10 4 19 11 19 16 3
28 12 41 41 56 17 8 33 21 35 28 3 8 0 11 -7 7 -7 -5 -9 -1 -5 9 6 13 8 13 23
-3 17 -20 61 -36 61 -22 0 5 -9 12 -21 15 -14 5 -19 13 -16 26 3 12 0 19 -10
19 -8 0 -11 -5 -7 -12 4 -7 3 -9 -1 -5 -14 12 -14 35 0 47 10 8 15 6 20 -9 3
-12 14 -21 23 -21 15 0 15 -2 2 -10 -8 -5 -10 -10 -5 -10 6 0 21 7 33 16 21
14 22 14 22 -6 0 -11 7 -23 15 -26 8 -4 15 -10 15 -16 0 -5 -6 -6 -12 -2 -10
5 -10 4 -2 -5 8 -9 18 -10 30 -3 11 5 25 7 32 4 11 -3 12 0 3 17 -6 11 -9 32
-5 46 5 19 2 25 -10 25 -9 0 -16 5 -16 10 0 6 7 10 15 10 8 0 15 7 15 16 0 8
-4 12 -10 9 -5 -3 -10 0 -10 9 0 8 5 16 12 18 8 3 13 42 15 124 4 139 9 276
12 287 0 4 6 7 12 7 7 0 9 -35 5 -114z m-479 37 c-3 -10 -5 -4 -5 12 0 17 2
24 5 18 2 -7 2 -21 0 -30z m3 -170 c0 -75 -3 -134 -6 -131 -3 4 -5 57 -5 120
0 142 0 148 6 148 3 0 5 -61 5 -137z m1340 67 c0 -5 -2 -10 -4 -10 -3 0 -8 5
-11 10 -3 6 -1 10 4 10 6 0 11 -4 11 -10z m-820 -54 c0 -3 -4 -8 -10 -11 -5
-3 -10 -1 -10 4 0 6 5 11 10 11 6 0 10 -2 10 -4z m483 -16 c-3 -11 -7 -20 -9
-20 -2 0 -4 9 -4 20 0 11 4 20 9 20 5 0 7 -9 4 -20z m217 4 c0 -8 -4 -12 -10
-9 -5 3 -10 10 -10 16 0 5 5 9 10 9 6 0 10 -7 10 -16z m-701 -85 c0 -34 -2
-59 -5 -56 -9 9 -12 117 -4 117 5 0 8 -28 9 -61z m716 -43 c0 -13 -4 -28 -8
-32 -4 -5 -5 -1 -1 9 5 13 2 16 -11 11 -16 -6 -16 -5 1 14 10 12 19 22 19 22
1 0 1 -11 0 -24z m-835 -40 c0 -3 -4 -8 -10 -11 -5 -3 -10 -1 -10 4 0 6 5 11
10 11 6 0 10 -2 10 -4z m895 -14 c-3 -3 -11 0 -18 7 -9 10 -8 11 6 5 10 -3 15
-9 12 -12z m-127 -17 c-3 -3 -9 2 -12 12 -6 14 -5 15 5 6 7 -7 10 -15 7 -18z
m-801 -17 c-3 -8 -6 -5 -6 6 -1 11 2 17 5 13 3 -3 4 -12 1 -19z m903 12 c0 -5
-2 -10 -4 -10 -3 0 -8 5 -11 10 -3 6 -1 10 4 10 6 0 11 -4 11 -10z m60 -30 c0
-5 -2 -10 -4 -10 -3 0 -8 5 -11 10 -3 6 -1 10 4 10 6 0 11 -4 11 -10z m-186
-25 c11 -8 17 -17 14 -21 -4 -3 -16 4 -27 15 -24 24 -15 28 13 6z m118 8 c-10
-4 -10 -8 -1 -19 9 -11 8 -14 -3 -14 -7 0 -14 9 -15 20 -1 13 4 20 15 19 11 0
13 -2 4 -6z m148 -13 c0 -5 -5 -10 -11 -10 -5 0 -7 5 -4 10 3 6 8 10 11 10 2
0 4 -4 4 -10z m-1000 -10 c-20 -13 -43 -13 -35 0 3 6 16 10 28 10 18 0 19 -2
7 -10z m802 -22 c-7 -7 -12 -8 -12 -2 0 14 12 26 19 19 2 -3 -1 -11 -7 -17z
m-982 8 c0 -3 -4 -8 -10 -11 -5 -3 -10 -1 -10 4 0 6 5 11 10 11 6 0 10 -2 10
-4z m1072 -3 c-6 -2 -9 -10 -6 -15 4 -7 2 -8 -5 -4 -13 9 -5 26 12 25 9 0 8
-2 -1 -6z m-785 -25 c-3 -8 -6 -5 -6 6 -1 11 2 17 5 13 3 -3 4 -12 1 -19z
m643 12 c0 -5 -5 -10 -11 -10 -5 0 -7 5 -4 10 3 6 8 10 11 10 2 0 4 -4 4 -10z
m168 -13 c8 -10 6 -13 -7 -13 -11 0 -17 6 -14 13 3 7 6 13 8 13 1 0 7 -6 13
-13z m-158 -17 c0 -5 -7 -7 -15 -4 -8 4 -15 8 -15 10 0 2 7 4 15 4 8 0 15 -4
15 -10z m166 -19 c-4 -5 0 -11 6 -14 7 -2 -2 -4 -20 -3 -28 1 -30 3 -15 14 20
14 37 16 29 3z m94 -5 c0 -2 -7 -7 -16 -10 -8 -3 -12 -2 -9 4 6 10 25 14 25 6z
m-1369 -33 c-12 -20 -14 -14 -5 12 4 9 9 14 11 11 3 -2 0 -13 -6 -23z m1092
20 c-7 -2 -19 -2 -25 0 -7 3 -2 5 12 5 14 0 19 -2 13 -5z m127 -3 c0 -5 -2
-10 -4 -10 -3 0 -8 5 -11 10 -3 6 -1 10 4 10 6 0 11 -4 11 -10z m-1185 -90 c3
-5 -1 -10 -10 -10 -9 0 -13 5 -10 10 3 6 8 10 10 10 2 0 7 -4 10 -10z m69 -15
c-4 -8 -13 -15 -21 -15 -13 0 -13 3 -3 15 7 8 16 15 21 15 5 0 6 -7 3 -15z"/>
<path d="M1660 3970 c-13 -9 -7 -14 13 -11 4 0 7 -5 7 -12 0 -23 29 -74 61
-108 24 -26 32 -30 39 -19 11 17 -7 43 -23 33 -6 -3 -7 -1 -3 5 4 7 2 12 -4
12 -6 0 -9 4 -6 8 3 5 -5 15 -18 22 -14 7 -30 28 -38 46 -10 27 -16 32 -28 24z"/>
<path d="M1803 3783 c-15 -5 -17 -23 -4 -23 5 0 11 7 15 15 3 8 4 15 3 14 -1
0 -8 -3 -14 -6z"/>
<path d="M1870 3411 c0 -5 5 -13 10 -16 6 -3 10 -2 10 4 0 5 -4 13 -10 16 -5
3 -10 2 -10 -4z"/>
<path d="M1960 3390 c0 -5 5 -10 12 -10 6 0 9 -3 5 -6 -3 -4 0 -13 8 -20 22
-23 25 -16 7 16 -17 30 -32 39 -32 20z"/>
<path d="M2165 3389 c-4 -6 -5 -12 -2 -15 2 -3 7 2 10 11 7 17 1 20 -8 4z"/>
<path d="M2146 3343 c-6 -14 -5 -15 5 -6 7 7 10 15 7 18 -3 3 -9 -2 -12 -12z"/>
<path d="M2110 3341 c0 -5 5 -13 10 -16 6 -3 10 -2 10 4 0 5 -4 13 -10 16 -5
3 -10 2 -10 -4z"/>
<path d="M2257 2743 c-5 -28 -2 -41 8 -31 11 10 15 58 6 58 -5 0 -11 -12 -14
-27z"/>
<path d="M3726 3067 c3 -10 9 -15 12 -12 3 3 0 11 -7 18 -10 9 -11 8 -5 -6z"/>
<path d="M2795 2070 c-3 -5 -2 -10 4 -10 5 0 13 5 16 10 3 6 2 10 -4 10 -5 0
-13 -4 -16 -10z"/>
<path d="M2655 1950 c-3 -5 -1 -10 4 -10 6 0 11 5 11 10 0 6 -2 10 -4 10 -3 0
-8 -4 -11 -10z"/>
<path d="M2960 2221 c0 -6 4 -13 10 -16 6 -3 7 1 4 9 -7 18 -14 21 -14 7z"/>
<path d="M3035 1970 c-3 -5 -2 -10 4 -10 5 0 13 5 16 10 3 6 2 10 -4 10 -5 0
-13 -4 -16 -10z"/>
<path d="M3118 1883 c7 -3 16 -2 19 1 4 3 -2 6 -13 5 -11 0 -14 -3 -6 -6z"/>
<path d="M2123 1638 c1 -7 -12 -12 -35 -12 -21 0 -38 -4 -38 -8 0 -5 27 -8 60
-7 58 2 60 3 44 21 -19 20 -35 24 -31 6z"/>
<path d="M2001 1624 c0 -11 3 -14 6 -6 3 7 2 16 -1 19 -3 4 -6 -2 -5 -13z"/>
<path d="M2189 1638 c-7 -13 -4 -46 3 -42 4 3 6 10 3 15 -4 5 1 9 10 9 9 0 13
5 10 10 -6 9 -23 14 -26 8z"/>
<path d="M1969 1613 c-3 -23 -4 -28 -13 -41 -10 -16 11 -42 33 -42 12 1 10 4
-7 13 -20 12 -21 14 -6 29 12 12 14 20 5 34 -6 11 -11 14 -12 7z"/>
<path d="M2067 1586 c-4 -10 -1 -13 8 -9 8 3 12 9 9 14 -7 12 -11 11 -17 -5z"/>
<path d="M2006 1574 c-5 -12 -1 -14 17 -9 19 5 20 4 5 -5 -10 -6 -18 -16 -18
-22 0 -7 5 -6 15 2 12 10 15 9 15 -6 0 -15 2 -16 9 -5 11 17 -7 61 -25 61 -6
0 -15 -7 -18 -16z"/>
<path d="M2075 1530 c3 -5 8 -10 11 -10 2 0 4 5 4 10 0 6 -5 10 -11 10 -5 0
-7 -4 -4 -10z"/>
<path d="M1973 1499 c14 -22 27 -25 27 -5 0 7 -9 16 -19 19 -17 4 -18 2 -8
-14z"/>
<path d="M2045 1470 c3 -5 8 -10 11 -10 2 0 4 5 4 10 0 6 -5 10 -11 10 -5 0
-7 -4 -4 -10z"/>
<path d="M1790 1431 c0 -5 5 -13 10 -16 6 -3 10 -2 10 4 0 5 -4 13 -10 16 -5
3 -10 2 -10 -4z"/>
<path d="M3240 4169 c0 -5 5 -7 10 -4 6 3 10 8 10 11 0 2 -4 4 -10 4 -5 0 -10
-5 -10 -11z"/>
<path d="M4135 3590 c4 -6 11 -8 16 -5 14 9 11 15 -7 15 -8 0 -12 -5 -9 -10z"/>
</g>
</svg>
